<?xml version="1.0" encoding="UTF-8"?>
<!DOCTYPE svg PUBLIC "-//W3C//DTD SVG 1.1//EN" "http://www.w3.org/Graphics/SVG/1.1/DTD/svg11.dtd">
<!-- Creator: CorelDRAW -->
<svg xmlns="http://www.w3.org/2000/svg" xml:space="preserve" width="64" height="64" version="1.1" style="shape-rendering:geometricPrecision; text-rendering:geometricPrecision; image-rendering:optimizeQuality; fill-rule:evenodd; clip-rule:evenodd"
viewBox="7300 11700 6400 6400"
 xmlns:xlink="http://www.w3.org/1999/xlink"
 xmlns:xodm="http://www.corel.com/coreldraw/odm/2003">
 <defs>
  <style type="text/css">
   <![CDATA[
    .fil2 {fill:black;fill-rule:nonzero}
    .fil1 {fill:#5F1021;fill-rule:nonzero}
    .fil0 {fill:white;fill-rule:nonzero}
   ]]>
  </style>
 </defs>
 <g id="Слой_x0020_1">
  <metadata id="CorelCorpID_0Corel-Layer"/>
  <g id="_2058549747056">
   <path class="fil0" d="M10492.87 11832.36c833.44,0 1587.98,337.83 2134.16,884.01 546.18,546.18 884.01,1300.72 884.01,2134.16 0,833.42 -337.83,1587.98 -884.01,2134.16 -546.18,546.18 -1300.72,884.01 -2134.16,884.01 -833.42,0 -1587.98,-337.83 -2134.16,-884.01 -546.18,-546.18 -884.01,-1300.74 -884.01,-2134.16 0,-833.44 337.83,-1587.98 884.01,-2134.16 546.18,-546.18 1300.74,-884.01 2134.16,-884.01z"/>
   <path class="fil1" d="M10492.87 11832.36c833.44,0 1587.98,337.83 2134.16,884.01 546.18,546.18 884.01,1300.72 884.01,2134.16 0,833.42 -337.83,1587.98 -884.01,2134.16 -546.18,546.18 -1300.72,884.01 -2134.16,884.01 -833.42,0 -1587.98,-337.83 -2134.16,-884.01 -546.18,-546.18 -884.01,-1300.74 -884.01,-2134.16 0,-833.44 337.83,-1587.98 884.01,-2134.16 546.18,-546.18 1300.74,-884.01 2134.16,-884.01zm2074.3 943.87c-530.84,-530.84 -1264.23,-859.19 -2074.3,-859.19 -810.07,0 -1543.46,328.35 -2074.3,859.19 -530.84,530.84 -859.19,1264.23 -859.19,2074.3 0,810.07 328.35,1543.46 859.19,2074.3 530.84,530.84 1264.23,859.19 2074.3,859.19 810.07,0 1543.46,-328.35 2074.3,-859.19 530.84,-530.84 859.19,-1264.23 859.19,-2074.3 0,-810.07 -328.35,-1543.46 -859.19,-2074.3z"/>
   <g>
    <path class="fil2" d="M12459.45 15693.85c-143.61,0 -246.79,-47.42 -309.56,-142.25 -62.77,-94.82 -94.15,-222.17 -94.15,-382.03 0,-136.38 18.74,-284.94 56.22,-445.7 37.49,-160.77 80.16,-305.74 128.03,-434.89 47.86,-129.14 83.54,-210.87 107.02,-245.21 -68.64,12.65 -126.68,44.94 -174.08,96.87 -47.42,51.93 -86.49,112.46 -117.19,181.54 -30.71,69.1 -66.83,163.25 -108.37,282.46 -51.49,149.02 -99.57,269.13 -144.29,360.35 -44.7,91.24 -106.79,168.68 -186.27,232.35 -79.48,63.67 -180.18,95.51 -302.11,95.51 29.8,-35.22 56.9,-96.63 81.28,-184.25 24.39,-87.61 54.64,-212.25 90.77,-373.89 30.71,-139.11 57.35,-251.54 79.93,-337.34 22.58,-85.81 48.33,-162.8 77.22,-230.98 28.91,-68.2 60.51,-111.78 94.83,-130.73 -84.89,12.64 -158.28,52.59 -220.13,119.89 -61.89,67.28 -114.04,146.98 -156.49,239.12 -42.44,92.1 -93.47,217.64 -153.07,376.6 -74.07,198.69 -141.79,358.79 -203.22,480.26 -61.41,121.48 -142.93,225.12 -244.53,310.91 -101.6,85.79 -226.92,128.69 -375.94,128.69 -121.93,0 -223.31,-24.38 -304.14,-73.15 -80.84,-48.77 -140.44,-114.24 -178.83,-196.43 -38.37,-82.2 -57.56,-174.3 -57.56,-276.36 0,-136.38 31.83,-272.54 95.51,-408.46 63.67,-135.94 152.62,-247.92 266.87,-335.97 114.26,-88.06 242.28,-132.09 384.07,-132.09 75.87,0 139.77,17.15 191.7,51.47 51.93,34.34 90.76,80.16 116.5,137.52 25.75,57.34 38.61,119.89 38.61,187.63 0,76.16 -15.5,150.21 -46.54,222.1 -1.6,-3.2 -3.49,-6.67 -5.65,-10.51 -14.75,-26.28 -41.94,-70.67 -65.15,-107.68 9.58,-44.56 14.38,-89.14 14.38,-133.72 0,-89.42 -19.86,-163.47 -59.61,-222.17 -39.73,-58.71 -98.43,-88.06 -176.11,-88.06 -126.44,0 -239.11,42.22 -338.01,126.66 -98.89,84.45 -175.67,192.14 -230.3,323.11 -54.64,130.95 -81.97,262.36 -81.97,394.23 0,96.64 15.37,183.57 46.06,260.78 30.72,77.22 78.36,138.87 142.93,184.93 64.58,46.06 145.18,69.08 241.83,69.08 113.8,0 211.55,-36.57 293.29,-109.73 81.73,-73.15 149.71,-162.79 203.88,-268.91 54.2,-106.13 116.97,-249.95 188.31,-431.48 74.07,-186.95 139.55,-336.21 196.45,-447.75 56.9,-111.54 129.37,-205.92 217.42,-283.14 88.07,-77.21 194.42,-115.82 319.06,-115.82 -43.36,29.79 -81.96,83.77 -115.84,161.88 -33.86,78.12 -62.53,162.81 -86.03,254.01 -23.48,91.22 -51.03,209.09 -82.63,353.6 -31.61,148.1 -58.02,260.1 -79.26,335.97 -21.22,75.86 -44.94,124.18 -71.12,144.96 76.77,0 142.03,-24.85 195.76,-74.52 53.74,-49.66 97.77,-111.53 132.09,-185.6 34.32,-74.05 74.05,-174.75 119.21,-302.11 53.3,-148.1 102.06,-267.33 146.32,-357.65 44.24,-90.3 103.86,-167.07 178.82,-230.3 74.97,-63.22 168.89,-94.83 281.79,-94.83 -30.71,31.61 -72.71,114.02 -126,247.23 -53.28,133.24 -100.24,283.38 -140.89,450.46 -40.63,167.09 -60.97,320.62 -60.97,460.6 0,151.75 28.45,272.32 85.35,361.72 56.9,89.42 149.93,134.12 279.08,134.12 74.06,0 139.54,-21.22 196.44,-63.68 56.9,-42.43 98.45,-102.96 124.64,-181.52l6.77 158.5c-53.29,38.83 -103.86,67.52 -151.73,86.03 -47.86,18.52 -104.76,27.77 -170.7,27.77z"/>
    <path class="fil2" d="M9298.48 14433.94c-19.87,64.13 -55.99,169.35 -108.37,315.65 -34.32,95.75 -56.46,158.06 -66.39,186.95l350.87 0 -176.11 -502.6zm-184.24 529.71c-28.01,83.99 -49.45,154.67 -64.35,212.01 -14.91,57.36 -22.34,102.74 -22.34,136.16 0,14.45 0.88,24.38 2.7,29.79l-81.28 0 334.61 -948.3 108.39 0 333.25 948.3 -108.38 0 -132.75 -377.96 -369.85 0zm-802.01 350.88c104.78,0 195.77,-2.49 272.98,-7.46 77.23,-4.97 153.33,-16.03 228.28,-33.19l-13.54 67.73 -487.72 0 -108.37 0 0 -948.3 108.37 0 0 921.22z"/>
   </g>
  </g>
 </g>
</svg>
