<?xml version="1.0" encoding="UTF-8"?>
<!DOCTYPE svg PUBLIC "-//W3C//DTD SVG 1.1//EN" "http://www.w3.org/Graphics/SVG/1.1/DTD/svg11.dtd">
<!-- Creator: CorelDRAW -->
<svg xmlns="http://www.w3.org/2000/svg" xml:space="preserve" width="157.975mm" height="31.8819mm" version="1.1" style="shape-rendering:geometricPrecision; text-rendering:geometricPrecision; image-rendering:optimizeQuality; fill-rule:evenodd; clip-rule:evenodd"
viewBox="0 0 15783.27 3185.31"
 xmlns:xlink="http://www.w3.org/1999/xlink"
 xmlns:xodm="http://www.corel.com/coreldraw/odm/2003">
 <defs>
  <style type="text/css">
   <![CDATA[
    .fil0 {fill:black;fill-rule:nonzero}
   ]]>
  </style>
 </defs>
 <g id="Слой_x0020_1">
  <metadata id="CorelCorpID_0Corel-Layer"/>
  <path class="fil0" d="M204.68 2468.93c197.86,0 369.71,-4.69 515.53,-14.07 145.84,-9.38 289.54,-30.27 431.11,-62.68l-25.59 127.92 -921.06 0 -204.68 0 0 -1790.93 204.68 0 0 1739.76zm1514.62 -662.64c-52.88,158.63 -93.39,292.1 -121.53,400.4 -28.14,108.31 -42.21,194.02 -42.21,257.13 0,27.3 1.7,46.06 5.12,56.29l-153.51 0 631.94 -1790.93 204.69 0 629.38 1790.93 -204.68 0 -250.73 -713.82 -698.46 0zm347.95 -1000.37c-37.52,121.1 -105.74,319.81 -204.68,596.12 -64.81,180.81 -106.6,298.49 -125.37,353.07l662.65 0 -332.61 -949.19zm6767.18 2379.39c-271.2,0 -466.07,-89.55 -584.61,-268.65 -118.54,-179.09 -177.81,-419.59 -177.81,-721.49 0,-257.56 35.39,-538.13 106.17,-841.74 70.79,-303.61 151.38,-577.37 241.78,-821.27 90.4,-243.91 157.77,-398.27 202.12,-463.09 -129.63,23.88 -239.22,84.86 -328.76,182.93 -89.55,98.07 -163.32,212.36 -221.31,342.84 -58,130.48 -126.22,308.29 -204.68,533.44 -97.22,281.44 -188.05,508.28 -272.48,680.56 -84.42,172.27 -201.69,318.53 -351.79,438.78 -150.09,120.24 -340.27,180.37 -570.53,180.37 56.28,-66.52 107.45,-182.51 153.5,-347.96 46.06,-165.44 103.2,-400.83 171.43,-706.13 57.99,-262.67 108.3,-475.03 150.94,-637.06 42.64,-162.03 91.26,-307.44 145.84,-436.23 54.58,-128.77 114.28,-211.07 179.09,-246.89 -160.33,23.88 -298.91,99.35 -415.74,226.43 -116.84,127.07 -215.35,277.59 -295.51,451.57 -80.16,173.97 -176.53,411.06 -289.1,711.26 -139.86,375.24 -267.79,677.57 -383.77,906.98 -115.99,229.4 -269.93,425.14 -461.81,587.17 -191.89,162.03 -428.54,243.05 -709.98,243.05 -230.26,0 -421.72,-46.05 -574.37,-138.16 -152.66,-92.11 -265.23,-215.77 -337.73,-370.98 -72.48,-155.22 -108.73,-329.19 -108.73,-521.93 0,-257.56 60.13,-514.69 180.38,-771.38 120.24,-256.71 288.25,-468.21 504.02,-634.51 215.77,-166.3 457.55,-249.45 725.33,-249.45 143.28,0 263.95,32.41 362.03,97.22 98.07,64.82 171.42,151.38 220.02,259.69 48.62,108.31 72.92,226.43 72.92,354.35 0,155.22 -34.12,305.74 -102.34,451.57 -68.23,145.84 -168.01,265.23 -299.35,358.19 -131.33,92.97 -284.84,139.44 -460.52,139.44 -141.57,0 -259.69,-32.84 -354.35,-98.5 -94.66,-65.67 -157.35,-143.7 -188.05,-234.11l104.91 -258.41c-1.71,13.65 -2.57,34.12 -2.57,61.4 0,78.46 15.36,153.94 46.06,226.43 30.7,72.49 78.03,132.62 141.99,180.38 63.96,47.76 144.56,71.64 241.78,71.64 133.04,0 251.15,-47.76 354.35,-143.27 103.19,-95.52 182.92,-217.47 239.21,-365.87 56.29,-148.39 84.43,-296.78 84.43,-445.17 0,-168.87 -37.53,-308.73 -112.58,-419.59 -75.04,-110.87 -185.91,-166.3 -332.6,-166.3 -238.79,0 -451.57,79.74 -638.34,239.21 -186.77,159.48 -331.75,362.87 -434.94,610.2 -103.2,247.32 -154.79,495.49 -154.79,744.52 0,182.51 28.99,346.67 86.99,492.51 57.99,145.83 147.97,262.24 269.92,349.23 121.95,86.98 274.18,130.48 456.69,130.48 214.92,0 399.55,-69.08 553.91,-207.24 154.36,-138.16 282.71,-307.44 385.05,-507.85 102.34,-200.42 220.88,-472.04 355.63,-814.87 139.86,-353.07 263.52,-634.94 370.99,-845.59 107.45,-210.64 244.33,-388.89 410.63,-534.72 166.3,-145.84 367.15,-218.75 602.53,-218.75 -81.88,56.29 -154.79,158.2 -218.75,305.74 -63.96,147.54 -118.11,307.44 -162.46,479.71 -44.35,172.27 -96.37,394.86 -156.07,667.77 -59.7,279.73 -109.58,491.23 -149.66,634.51 -40.08,143.27 -84.86,234.53 -134.32,273.75 144.98,0 268.21,-46.91 369.7,-140.71 101.49,-93.82 184.63,-210.65 249.45,-350.51 64.81,-139.86 139.86,-330.04 225.15,-570.54 100.63,-279.73 192.74,-504.87 276.31,-675.44 83.57,-170.56 196.15,-315.55 337.73,-434.94 141.56,-119.39 318.95,-179.1 532.16,-179.1 -57.99,59.71 -137.31,215.35 -237.94,466.93 -100.64,251.58 -189.33,535.15 -266.09,850.69 -76.75,315.55 -115.13,605.51 -115.13,869.88 0,286.55 53.73,514.26 161.18,683.11 107.45,168.86 283.13,253.29 527.04,253.29 139.86,0 263.52,-40.08 370.99,-120.25 107.45,-80.17 185.91,-194.44 235.38,-342.83l12.79 299.34c-100.63,73.34 -196.14,127.49 -286.55,162.46 -90.4,34.97 -197.85,52.45 -322.37,52.45zm363.31 -665.21c-170.57,0 -316.4,-42.21 -437.51,-126.65 -121.1,-84.43 -212.35,-194.44 -273.75,-330.04 -61.4,-135.6 -92.11,-281.01 -92.11,-436.23 0,-155.21 30.7,-301.05 92.11,-437.5 61.4,-136.46 153.08,-247.32 275.03,-332.6 121.96,-85.28 267.37,-127.92 436.23,-127.92 170.57,0 316.39,42.21 437.5,126.65 121.1,84.42 212.36,195.29 273.76,332.6 61.4,137.31 92.11,283.56 92.11,438.77 0,155.22 -30.7,301.05 -92.11,437.51 -61.4,136.45 -152.66,246.47 -273.76,330.04 -121.1,83.57 -266.93,125.37 -437.5,125.37zm0 -51.17c129.62,0 240.07,-38.79 331.32,-116.4 91.25,-77.61 159.91,-179.52 205.95,-305.74 46.06,-126.22 69.08,-261.81 69.08,-406.79 0,-146.69 -23.45,-285.7 -70.36,-417.03 -46.9,-131.33 -115.99,-237.94 -207.23,-319.81 -91.26,-81.87 -200.84,-122.81 -328.76,-122.81 -127.92,0 -237.52,39.66 -328.76,118.97 -91.26,79.31 -159.91,183.78 -205.96,313.42 -46.05,129.62 -69.08,267.79 -69.08,414.47 0,146.69 23.03,283.99 69.08,411.92 46.06,127.92 114.71,231.54 205.96,310.86 91.25,79.31 200.84,118.96 328.76,118.96zm1614.39 51.17c-163.74,0 -287.82,-18.76 -372.25,-56.29 -84.43,-37.53 -147.12,-116.83 -188.05,-237.94 -40.93,-121.1 -62.25,-307.87 -63.96,-560.3l-7.67 -936.4 204.68 0 5.12 933.85c1.71,209.79 11.52,369.7 29.42,479.71 17.91,110.02 56.29,191.89 115.14,245.62 58.85,53.73 149.67,80.59 272.47,80.59 131.34,0 231.54,-34.54 300.63,-103.62 69.08,-69.08 115.13,-160.33 138.16,-273.75 23.03,-113.43 34.54,-252.86 34.54,-418.31l0 -84.43c0,-209.79 -6.39,-387.61 -19.19,-533.44 -12.79,-145.84 -40.5,-254.57 -83.14,-326.21l153.51 0 -2.57 946.64c-1.7,184.21 -14.5,335.59 -38.38,454.13 -23.88,118.54 -73.34,213.21 -148.39,283.99 -75.05,70.79 -185.06,106.17 -330.05,106.17zm1849.79 -1790.93l0 1790.93 -209.8 0 -890.35 -1693.71 -2.57 455.41c0,344.54 7.25,628.53 21.75,851.97 14.5,223.44 42.21,352.22 83.15,386.33l-153.51 0 0 -1790.93 209.79 0 890.36 1693.71 2.56 -455.41c0,-344.54 -7.25,-628.53 -21.75,-851.97 -14.5,-223.45 -42.21,-352.22 -83.14,-386.33l153.51 0zm204.68 0l204.68 0 0 1790.93 -204.68 0 0 -1790.93zm1560.68 0l0 1790.93 -209.8 0 -890.35 -1693.71 -2.57 455.41c0,344.54 7.25,628.53 21.75,851.97 14.5,223.44 42.21,352.22 83.15,386.33l-153.51 0 0 -1790.93 209.79 0 890.36 1693.71 2.56 -455.41c0,-344.54 -7.25,-628.53 -21.75,-851.97 -14.5,-223.45 -42.21,-352.22 -83.14,-386.33l153.51 0zm409.35 1739.76c197.86,0 369.71,-4.69 515.53,-14.07 145.84,-9.38 289.54,-30.27 431.11,-62.68l-25.59 127.92 -921.06 0 -204.68 0 0 -1790.93 204.68 0 793.13 0 25.59 127.92c-141.57,-32.41 -271.63,-53.3 -390.17,-62.68 -118.54,-9.38 -261.39,-14.08 -428.55,-14.08l0 805.92 168.86 0c223.45,0 397.42,-8.52 521.94,-25.59l0 102.35c-160.34,-17.06 -390.6,-25.59 -690.8,-25.59l0 831.5z"/>
 </g>
</svg>
