<?xml version="1.0" encoding="UTF-8"?>
<!DOCTYPE svg PUBLIC "-//W3C//DTD SVG 1.1//EN" "http://www.w3.org/Graphics/SVG/1.1/DTD/svg11.dtd">
<!-- Creator: CorelDRAW -->
<svg xmlns="http://www.w3.org/2000/svg" xml:space="preserve" width="60.3634mm" height="60.3634mm" version="1.1" style="shape-rendering:geometricPrecision; text-rendering:geometricPrecision; image-rendering:optimizeQuality; fill-rule:evenodd; clip-rule:evenodd"
viewBox="0 0 6022.11 6022.11"
 xmlns:xlink="http://www.w3.org/1999/xlink"
 xmlns:xodm="http://www.corel.com/coreldraw/odm/2003">
 <defs>
  <style type="text/css">
   <![CDATA[
    .fil2 {fill:black}
    .fil1 {fill:#5F1021;fill-rule:nonzero}
    .fil0 {fill:white;fill-rule:nonzero}
   ]]>
  </style>
 </defs>
 <g id="Слой_x0020_1">
  <metadata id="CorelCorpID_0Corel-Layer"/>
  <g id="_2007148031840">
   <path class="fil0" d="M3011.06 0c831.48,0 1584.24,337.03 2129.13,881.93 544.89,544.89 881.93,1297.65 881.93,2129.13 0,831.46 -337.03,1584.24 -881.93,2129.13 -544.89,544.89 -1297.65,881.93 -2129.13,881.93 -831.46,0 -1584.24,-337.03 -2129.13,-881.93 -544.89,-544.89 -881.93,-1297.67 -881.93,-2129.13 0,-831.48 337.03,-1584.24 881.93,-2129.13 544.89,-544.89 1297.67,-881.93 2129.13,-881.93z"/>
   <g>
    <path class="fil1" d="M3011.06 0c831.48,0 1584.24,337.03 2129.13,881.93 544.89,544.89 881.93,1297.65 881.93,2129.13 0,831.46 -337.03,1584.24 -881.93,2129.13 -544.89,544.89 -1297.65,881.93 -2129.13,881.93 -831.46,0 -1584.24,-337.03 -2129.13,-881.93 -544.89,-544.89 -881.93,-1297.67 -881.93,-2129.13 0,-831.48 337.03,-1584.24 881.93,-2129.13 544.89,-544.89 1297.67,-881.93 2129.13,-881.93zm2069.41 941.65c-529.59,-529.59 -1261.25,-857.17 -2069.41,-857.17 -808.16,0 -1539.82,327.58 -2069.41,857.17 -529.59,529.59 -857.17,1261.25 -857.17,2069.41 0,808.16 327.58,1539.82 857.17,2069.41 529.59,529.59 1261.25,857.17 2069.41,857.17 808.16,0 1539.82,-327.58 2069.41,-857.17 529.59,-529.59 857.17,-1261.25 857.17,-2069.41 0,-808.16 -327.58,-1539.82 -857.17,-2069.41z"/>
    <g>
     <path class="fil2" d="M2470.68 2896.72c-63.97,136.57 -95.95,273.36 -95.95,410.38 0,102.54 19.28,195.09 57.84,277.66 38.57,82.57 98.46,148.36 179.67,197.36 81.22,48.99 183.07,73.5 305.57,73.5 149.73,0 275.63,-43.11 377.71,-129.3 102.08,-86.21 183.98,-190.33 245.68,-312.37 61.7,-122.05 129.76,-282.89 204.17,-482.51 59.89,-159.71 111.16,-285.84 153.81,-378.4 42.65,-92.55 95.05,-172.63 157.21,-240.23 62.15,-67.6 135.89,-107.76 221.18,-120.46 -34.48,19.05 -66.23,62.83 -95.27,131.34 -29.04,68.52 -54.9,145.88 -77.59,232.07 -22.69,86.21 -49.45,199.18 -80.3,338.92 -36.29,162.42 -66.69,287.65 -91.19,375.66 -24.5,88.02 -51.73,149.73 -81.67,185.11 122.5,0 223.67,-31.98 303.52,-95.95 79.86,-63.98 142.24,-141.79 187.16,-233.44 44.91,-91.64 93.24,-212.33 144.96,-362.05 41.74,-119.78 78.04,-214.37 108.88,-283.79 30.86,-69.42 70.1,-130.21 117.74,-182.39 47.64,-52.18 105.94,-84.62 174.9,-97.32 -23.59,34.49 -59.43,116.6 -107.53,246.37 -48.09,129.75 -90.97,275.39 -128.63,436.91 -37.65,161.52 -56.49,310.79 -56.49,447.81 0,160.6 31.54,288.55 94.6,383.82 63.07,95.28 166.74,142.92 311.02,142.92 66.24,0 123.41,-9.3 171.49,-27.9 48.11,-18.61 98.92,-47.41 152.45,-86.43l-6.8 -159.25c-26.32,78.94 -68.06,139.74 -125.22,182.39 -57.16,42.65 -122.95,63.97 -197.36,63.97 -129.75,0 -223.22,-44.91 -280.38,-134.75 -57.16,-89.83 -85.76,-210.97 -85.76,-363.41 0,-140.65 20.42,-294.91 61.25,-462.78 40.84,-167.87 88.02,-318.73 141.57,-452.57 53.53,-133.84 95.73,-216.64 126.58,-248.4 -113.43,0 -207.8,31.76 -283.11,95.27 -75.31,63.52 -135.21,140.66 -179.67,231.39 -44.46,90.74 -93.47,210.51 -147,359.33 -45.36,127.95 -85.3,229.12 -119.78,303.53 -34.48,74.4 -78.71,136.56 -132.71,186.47 -53.99,49.9 -119.55,74.86 -196.68,74.86 26.31,-20.87 50.13,-69.43 71.45,-145.64 21.33,-76.23 47.87,-188.74 79.62,-337.56 31.76,-145.19 59.44,-263.6 83.03,-355.25 23.59,-91.64 52.4,-176.71 86.43,-255.21 34.03,-78.49 72.82,-132.71 116.38,-162.66 -125.21,0 -232.07,38.8 -320.54,116.39 -88.47,77.58 -161.29,172.4 -218.45,284.47 -57.16,112.07 -122.95,262.01 -197.36,449.85 -71.68,182.39 -134.75,326.89 -189.19,433.52 -54.44,106.62 -122.73,196.68 -204.85,270.17 -82.12,73.51 -180.34,110.25 -294.68,110.25 -97.09,0 -178.08,-23.14 -242.96,-69.42 -64.88,-46.27 -112.74,-108.2 -143.59,-185.79 -30.86,-77.59 -46.28,-164.92 -46.28,-262.01 0,-132.48 27.45,-264.51 82.35,-396.08 54.9,-131.58 132.03,-239.78 231.39,-324.62 99.36,-84.84 212.56,-127.26 339.6,-127.26 78.04,0 137.02,29.49 176.94,88.47 39.93,58.98 59.89,133.38 59.89,223.22 0,78.94 -14.97,157.89 -44.92,236.83 -29.94,78.94 -72.36,143.82 -127.26,194.64 -54.9,50.81 -117.73,76.22 -188.51,76.22 -51.72,0 -94.6,-12.7 -128.63,-38.11 -34.03,-25.41 -59.2,-57.39 -75.54,-95.96 -16.33,-38.56 -24.5,-78.71 -24.5,-120.46 0,-14.52 0.46,-25.41 1.37,-32.67l-55.81 137.48c16.33,48.1 49.68,89.61 100.04,124.55 50.36,34.93 113.19,52.41 188.51,52.41 93.46,0 175.13,-24.73 245,-74.18 69.86,-49.45 122.95,-112.97 159.25,-190.56 36.28,-77.58 54.44,-157.66 54.44,-240.23 0,-68.06 -12.93,-130.89 -38.8,-188.51 -25.86,-57.61 -64.88,-103.67 -117.05,-138.15 -52.18,-34.48 -116.38,-51.72 -192.6,-51.72 -142.46,0 -271.09,44.24 -385.88,132.71 -114.78,88.47 -204.17,200.99 -268.14,337.55z"/>
     <g>
      <path class="fil2" d="M805.4 3460.23l0 -925.55 -108.88 0 0 952.78 108.88 0 490 0 13.61 -68.06c-75.31,17.24 -151.76,28.35 -229.35,33.34 -77.58,5 -169,7.49 -274.26,7.49z"/>
      <path class="fil2" d="M1524.06 3457.5c0,-33.57 7.49,-79.17 22.46,-136.8 14.97,-57.61 36.52,-128.62 64.66,-213.01l371.58 0 133.38 379.75 108.89 0 -334.83 -952.78 -108.89 0 -336.2 952.78 81.67 0c-1.82,-5.45 -2.72,-15.43 -2.72,-29.95zm163.33 -564.87c52.64,-146.99 88.93,-252.7 108.88,-317.13l176.95 504.97 -352.53 0c9.98,-29.04 32.21,-91.64 66.69,-187.84z"/>
     </g>
    </g>
   </g>
   <path class="fil2" d="M2470.68 2896.72c-63.97,136.57 -95.95,273.36 -95.95,410.38 0,102.54 19.28,195.09 57.84,277.66 38.57,82.57 98.46,148.36 179.67,197.36 81.22,48.99 183.07,73.5 305.57,73.5 149.73,0 275.63,-43.11 377.71,-129.3 102.08,-86.21 183.98,-190.33 245.68,-312.37 61.7,-122.05 129.76,-282.89 204.17,-482.51 59.89,-159.71 111.16,-285.84 153.81,-378.4 42.65,-92.55 95.05,-172.63 157.21,-240.23 62.15,-67.6 135.89,-107.76 221.18,-120.46 -34.48,19.05 -66.23,62.83 -95.27,131.34 -29.04,68.52 -54.9,145.88 -77.59,232.07 -22.69,86.21 -49.45,199.18 -80.3,338.92 -36.29,162.42 -66.69,287.65 -91.19,375.66 -24.5,88.02 -51.73,149.73 -81.67,185.11 122.5,0 223.67,-31.98 303.52,-95.95 79.86,-63.98 142.24,-141.79 187.16,-233.44 44.91,-91.64 93.24,-212.33 144.96,-362.05 41.74,-119.78 78.04,-214.37 108.88,-283.79 30.86,-69.42 70.1,-130.21 117.74,-182.39 47.64,-52.18 105.94,-84.62 174.9,-97.32 -23.59,34.49 -59.43,116.6 -107.53,246.37 -48.09,129.75 -90.97,275.39 -128.63,436.91 -37.65,161.52 -56.49,310.79 -56.49,447.81 0,160.6 31.54,288.55 94.6,383.82 63.07,95.28 166.74,142.92 311.02,142.92 66.24,0 123.41,-9.3 171.49,-27.9 48.11,-18.61 98.92,-47.41 152.45,-86.43l-6.8 -159.25c-26.32,78.94 -68.06,139.74 -125.22,182.39 -57.16,42.65 -122.95,63.97 -197.36,63.97 -129.75,0 -223.22,-44.91 -280.38,-134.75 -57.16,-89.83 -85.76,-210.97 -85.76,-363.41 0,-140.65 20.42,-294.91 61.25,-462.78 40.84,-167.87 88.02,-318.73 141.57,-452.57 53.53,-133.84 95.73,-216.64 126.58,-248.4 -113.43,0 -207.8,31.76 -283.11,95.27 -75.31,63.52 -135.21,140.66 -179.67,231.39 -44.46,90.74 -93.47,210.51 -147,359.33 -45.36,127.95 -85.3,229.12 -119.78,303.53 -34.48,74.4 -78.71,136.56 -132.71,186.47 -53.99,49.9 -119.55,74.86 -196.68,74.86 26.31,-20.87 50.13,-69.43 71.45,-145.64 21.33,-76.23 47.87,-188.74 79.62,-337.56 31.76,-145.19 59.44,-263.6 83.03,-355.25 23.59,-91.64 52.4,-176.71 86.43,-255.21 34.03,-78.49 72.82,-132.71 116.38,-162.66 -125.21,0 -232.07,38.8 -320.54,116.39 -88.47,77.58 -161.29,172.4 -218.45,284.47 -57.16,112.07 -122.95,262.01 -197.36,449.85 -71.68,182.39 -134.75,326.89 -189.19,433.52 -54.44,106.62 -122.73,196.68 -204.85,270.17 -82.12,73.51 -180.34,110.25 -294.68,110.25 -97.09,0 -178.08,-23.14 -242.96,-69.42 -64.88,-46.27 -112.74,-108.2 -143.59,-185.79 -30.86,-77.59 -46.28,-164.92 -46.28,-262.01 0,-132.48 27.45,-264.51 82.35,-396.08 54.9,-131.58 132.03,-239.78 231.39,-324.62 99.36,-84.84 212.56,-127.26 339.6,-127.26 78.04,0 137.02,29.49 176.94,88.47 39.93,58.98 59.89,133.38 59.89,223.22 0,78.94 -14.97,157.89 -44.92,236.83 -29.94,78.94 -72.36,143.82 -127.26,194.64 -54.9,50.81 -117.73,76.22 -188.51,76.22 -51.72,0 -94.6,-12.7 -128.63,-38.11 -34.03,-25.41 -59.2,-57.39 -75.54,-95.96 -16.33,-38.56 -24.5,-78.71 -24.5,-120.46 0,-14.52 0.46,-25.41 1.37,-32.67l-55.81 137.48c16.33,48.1 49.68,89.61 100.04,124.55 50.36,34.93 113.19,52.41 188.51,52.41 93.46,0 175.13,-24.73 245,-74.18 69.86,-49.45 122.95,-112.97 159.25,-190.56 36.28,-77.58 54.44,-157.66 54.44,-240.23 0,-68.06 -12.93,-130.89 -38.8,-188.51 -25.86,-57.61 -64.88,-103.67 -117.05,-138.15 -52.18,-34.48 -116.38,-51.72 -192.6,-51.72 -142.46,0 -271.09,44.24 -385.88,132.71 -114.78,88.47 -204.17,200.99 -268.14,337.55z"/>
   <path class="fil2" d="M805.4 3460.23l0 -925.55 -108.88 0 0 952.78 108.88 0 490 0 13.61 -68.06c-75.31,17.24 -151.76,28.35 -229.35,33.34 -77.58,5 -169,7.49 -274.26,7.49z"/>
   <path class="fil2" d="M1524.06 3457.5c0,-33.57 7.49,-79.17 22.46,-136.8 14.97,-57.61 36.52,-128.62 64.66,-213.01l371.58 0 133.38 379.75 108.89 0 -334.83 -952.78 -108.89 0 -336.2 952.78 81.67 0c-1.82,-5.45 -2.72,-15.43 -2.72,-29.95zm163.33 -564.87c52.64,-146.99 88.93,-252.7 108.88,-317.13l176.95 504.97 -352.53 0c9.98,-29.04 32.21,-91.64 66.69,-187.84z"/>
  </g>
 </g>
</svg>
